<svg xmlns="http://www.w3.org/2000/svg" width="488" height="275" viewBox="0 0 488 275">
    <defs>
        <linearGradient id="a" x1="50%" x2="50%" y1="-30.584%" y2="85.321%">
            <stop offset="0%" stop-color="#D4EDFF"/>
            <stop offset="100%" stop-color="#5098E0"/>
        </linearGradient>
        <linearGradient id="b" x1="0%" y1="2.985%" y2="100%">
            <stop offset="0%" stop-color="#007CFF"/>
            <stop offset="100%" stop-color="#001B8A"/>
        </linearGradient>
        <linearGradient id="c" x1="50%" x2="50%" y1="-15.445%" y2="100%">
            <stop offset="0%" stop-color="#FFF"/>
            <stop offset="100%" stop-color="#74C5FF"/>
        </linearGradient>
        <linearGradient id="d" x1="84.785%" x2="18.188%" y1="85.317%" y2="13.887%">
            <stop offset="0%" stop-color="#001B8A"/>
            <stop offset="33.221%" stop-color="#003CC1"/>
            <stop offset="100%" stop-color="#2A90FF"/>
        </linearGradient>
        <linearGradient id="e" x1="95.161%" x2="0%" y1=".151%" y2=".151%">
            <stop offset="0%" stop-color="#001B8A"/>
            <stop offset="47.525%" stop-color="#003CC1"/>
            <stop offset="100%" stop-color="#2662CF"/>
        </linearGradient>
        <linearGradient id="f" x1="18.26%" x2="82.604%" y1="25%" y2="25%">
            <stop offset="0%" stop-color="#80F0FF"/>
            <stop offset="100%" stop-color="#007CFF"/>
        </linearGradient>
        <linearGradient id="g" x1="78.346%" x2="37.204%" y1="102.183%" y2="0%">
            <stop offset="0%" stop-color="#092F97"/>
            <stop offset="100%" stop-color="#3F9CFF"/>
        </linearGradient>
        <linearGradient id="h" x1="84.454%" x2="34.267%" y1="140.984%" y2="-15.651%">
            <stop offset="0%" stop-color="#092F97"/>
            <stop offset="100%" stop-color="#007CFF"/>
        </linearGradient>
        <linearGradient id="i" x1="-197.371%" x2="179.678%" y1="-240.404%" y2="250.094%">
            <stop offset="0%" stop-color="#80F0FF"/>
            <stop offset="100%" stop-color="#007CFF"/>
        </linearGradient>
        <linearGradient id="j" x1="50%" x2="50%" y1="0%" y2="100%">
            <stop offset="0%" stop-color="#FFF"/>
            <stop offset="100%" stop-color="#D4EDFF"/>
        </linearGradient>
        <linearGradient id="k" x1="50%" x2="50%" y1="12.17%" y2="87.219%">
            <stop offset="0%" stop-color="#D4EDFF"/>
            <stop offset="100%" stop-color="#5098E0"/>
        </linearGradient>
        <linearGradient id="l" x1="91.455%" x2="38.48%" y1="41.673%" y2="69.929%">
            <stop offset="0%" stop-color="#FFF"/>
            <stop offset="100%" stop-color="#D4EDFF"/>
        </linearGradient>
        <linearGradient id="m" x1="101.25%" x2="0%" y1="100%" y2="0%">
            <stop offset="0%" stop-color="#001B8A"/>
            <stop offset="47.525%" stop-color="#003CC1"/>
            <stop offset="100%" stop-color="#2A90FF"/>
        </linearGradient>
        <linearGradient id="n" x1="49.994%" x2="49.994%" y1="2.388%" y2="85.025%">
            <stop offset="0%" stop-color="#2A90FF"/>
            <stop offset="16%" stop-color="#1D6DCC"/>
            <stop offset="67%" stop-color="#04A"/>
        </linearGradient>
        <linearGradient id="o" x1="47.984%" x2="47.984%" y1="100%" y2="34.241%">
            <stop offset="0%" stop-color="#001B8A"/>
            <stop offset="47.525%" stop-color="#003CC1"/>
            <stop offset="100%" stop-color="#2A90FF"/>
        </linearGradient>
        <linearGradient id="p" x1="77.049%" x2="28.278%" y1=".629%" y2="98.81%">
            <stop offset="0%" stop-color="#80F0FF"/>
            <stop offset="100%" stop-color="#007CFF"/>
        </linearGradient>
        <linearGradient id="q" x1="13.242%" x2="61.86%" y1=".439%" y2="69.066%">
            <stop offset="0%" stop-color="#80F0FF"/>
            <stop offset="100%" stop-color="#007CFF"/>
        </linearGradient>
        <linearGradient id="r" x1="84.839%" x2="26.383%" y1="-11.788%" y2="79.832%">
            <stop offset="0%" stop-color="#092F97"/>
            <stop offset="100%" stop-color="#007CFF"/>
        </linearGradient>
        <linearGradient id="s" x1=".122%" x2="101.347%" y1="49.94%" y2="49.94%">
            <stop offset="0%" stop-color="#001B8A"/>
            <stop offset="47.52%" stop-color="#003CC1"/>
            <stop offset="100%" stop-color="#2662CF"/>
        </linearGradient>
        <linearGradient id="t" x1="70.673%" x2="36.439%" y1="-145.58%" y2="171.965%">
            <stop offset="0%" stop-color="#007CFF"/>
            <stop offset="100%" stop-color="#092F97"/>
        </linearGradient>
        <linearGradient id="u" x1="1.736%" x2="98.55%" y1="50.289%" y2="50.289%">
            <stop offset="0%" stop-color="#092F97"/>
            <stop offset="100%" stop-color="#007CFF"/>
        </linearGradient>
        <linearGradient id="v" x1="55.144%" x2="43.306%" y1="-8.978%" y2="114.968%">
            <stop offset="0%" stop-color="#FFF"/>
            <stop offset="100%" stop-color="#B9E2FF"/>
        </linearGradient>
        <linearGradient id="w" x1="50.668%" x2="50.668%" y1="121.642%" y2="-215.622%">
            <stop offset="0%" stop-color="#092F97"/>
            <stop offset="100%" stop-color="#007CFF"/>
        </linearGradient>
        <linearGradient id="x" x1="48.537%" x2="48.537%" y1="-403.093%" y2="84.696%">
            <stop offset="0%" stop-color="#FFF"/>
            <stop offset="100%" stop-color="#B9E2FF"/>
        </linearGradient>
        <linearGradient id="y" x1="45.25%" x2="45.25%" y1="-267.257%" y2="135.015%">
            <stop offset="0%" stop-color="#FFF"/>
            <stop offset="100%" stop-color="#B9E2FF"/>
        </linearGradient>
        <linearGradient id="z" x1="50.421%" x2="50.421%" y1=".841%" y2="132.421%">
            <stop offset="0%" stop-color="#FFF"/>
            <stop offset="100%" stop-color="#B9E2FF"/>
        </linearGradient>
        <linearGradient id="A" x1="50.264%" x2="50.264%" y1="99.519%" y2="-.121%">
            <stop offset="0%" stop-color="#092F97"/>
            <stop offset="100%" stop-color="#007CFF"/>
        </linearGradient>
        <linearGradient id="B" x1="-.924%" x2="100.478%" y1="49.99%" y2="49.99%">
            <stop offset="0%" stop-color="#FFF"/>
            <stop offset="100%" stop-color="#B9E2FF"/>
        </linearGradient>
        <linearGradient id="C" x1=".171%" x2="99.651%" y1="50.048%" y2="50.048%">
            <stop offset="0%" stop-color="#B9E2FF"/>
            <stop offset="100%" stop-color="#FFF"/>
        </linearGradient>
        <linearGradient id="D" x1="66.735%" x2="45.44%" y1="4.966%" y2="104.299%">
            <stop offset="0%" stop-color="#FFF"/>
            <stop offset="100%" stop-color="#B9E2FF"/>
        </linearGradient>
        <linearGradient id="E" x1="-29.106%" x2="134.258%" y1="50.621%" y2="50.621%">
            <stop offset="0%" stop-color="#092F97"/>
            <stop offset="100%" stop-color="#007CFF"/>
        </linearGradient>
        <linearGradient id="F" x1=".014%" x2="99.715%" y1="52.867%" y2="52.867%">
            <stop offset="0%" stop-color="#007CFF"/>
            <stop offset="100%" stop-color="#001B8A"/>
        </linearGradient>
        <linearGradient id="G" x1="-.138%" x2="99.608%" y1="49.899%" y2="49.899%">
            <stop offset="0%" stop-color="#001B8A"/>
            <stop offset="100%" stop-color="#007CFF"/>
        </linearGradient>
        <linearGradient id="H" x1="49.604%" x2="48.972%" y1="3.317%" y2="102.4%">
            <stop offset="0%" stop-color="#FFF"/>
            <stop offset="100%" stop-color="#D4EDFF"/>
        </linearGradient>
        <linearGradient id="I" x1="50%" x2="50%" y1="0%" y2="100%">
            <stop offset="0%" stop-color="#00CCE9"/>
            <stop offset="39.017%" stop-color="#1D6DCC"/>
            <stop offset="100%" stop-color="#04A"/>
        </linearGradient>
        <linearGradient id="J" x1="50%" x2="50%" y1="0%" y2="100%">
            <stop offset="0%" stop-color="#2A90FF"/>
            <stop offset="33.333%" stop-color="#1D6DCC"/>
            <stop offset="100%" stop-color="#04A"/>
        </linearGradient>
        <linearGradient id="K" x1="4.561%" x2="83.221%" y1="47.147%" y2="47.147%">
            <stop offset="0%" stop-color="#003CC1"/>
            <stop offset="100%" stop-color="#001B8A"/>
        </linearGradient>
        <linearGradient id="L" x1="49.506%" x2="49.506%" y1="95.443%" y2="-232.894%">
            <stop offset="0%" stop-color="#092F97"/>
            <stop offset="100%" stop-color="#007CFF"/>
        </linearGradient>
        <linearGradient id="M" x1="85.382%" x2="47.774%" y1="-218.592%" y2="68.7%">
            <stop offset="0%" stop-color="#FFF"/>
            <stop offset="100%" stop-color="#B9E2FF"/>
        </linearGradient>
    </defs>
    <g fill="none" fill-rule="evenodd">
        <path fill="#1184FF" d="M24.23 186.375c-.116-5.16.154-22.267 15.424-38.932 14.237-15.537 36.345-17.592 44.617-13.01-6.31-9.308-4.139-32.035 7.168-47.41 18.214-24.765 43.229-20.578 49.536-19.717.257-2.718 1.356-9.857 6.041-17.72 5.371-9.017 16.687-20.673 40.086-24.999 26.11-4.826 43.28 2.266 53.086 9.063 8.658 6 13.19 12.694 14.689 15.197 4.94-3.658 29.623-20.025 56.54-4.354 12.124 7.058 18.755 16.615 22.348 25.516a25.88 25.88 0 0 1 20.799 2.373s25.474-10.54 40.57 12.055c15.098 22.596 2.756 41.289 2.756 41.289s20.982.588 38.874 22.52C462.945 180.343 451.517 213 451.517 213H.972c-.537 0-.972-.46-.972-1.025 0-19.696 19.772-24.72 24.23-25.6"/>
        <path fill="url(#a)" d="M46.668 164.36c14.874-7.44 28.083 4.196 28.083 4.196s.785-10.634 11.78-13.559c10.995-2.925 16.286 6.088 16.286 6.088s-5.822-29.081 18.505-44.539c26.286-16.703 51.417 7.25 51.417 7.25s26.277-25.652 63.006-13.553c10.023 3.302 17.55 8.546 23.18 14.262 36.483-13.856 58.317-5.845 66.675-1.215 6.68-6.107 17.134-10.786 33.147-7.881 39.33 7.135 34.8 39.886 34.8 39.886s14.046-6.51 25.056 4.738C429.613 171.281 423.07 190 423.07 190H33.025s-1.23-18.199 13.643-25.64" transform="translate(0 23)"/>
        <path fill="#2053AF" d="M33 213c.625 1.334 2.83 3.473 10.017 5.737 13.907 4.38 47.707 1.079 51.012 9.166 3.61 8.83-23.031 6.34-22.726 16.65.26 8.765 18.378 8.446 38.8 8.446H339.04c16.54 0 13.547-7.641 11.206-11.12-3.401-5.05-1.906-9.71 12.977-10.354 14.447-.625 25.028-1.162 32.912-1.162 21.027 0 16.9-10.571 33.284-10.571 9.067 0 19.705-2.98 22.581-6.792H33z"/>
        <path fill="#1184FF" fill-rule="nonzero" d="M63.068 71.972C79.781 56.319 93.773 75.06 75.117 86.8c-18.656 11.946-23.32-4.325-12.049-14.828zM443.924 126.392c-6.994-30.327 6.12-40.082 22.513-19.511 16.393 20.359-16.174 46.656-22.513 19.51z"/>
        <path fill="url(#b)" d="M6.772 0h215.982a6.772 6.772 0 0 1 6.772 6.772v154.76H0V6.771A6.772 6.772 0 0 1 6.772 0z" transform="translate(112 51)"/>
        <path fill="url(#c)" d="M8.257 6h213.535a2.257 2.257 0 0 1 2.258 2.257v136.199H6V8.257A2.257 2.257 0 0 1 8.257 6z" transform="translate(112 51)"/>
        <g transform="translate(106 45)">
            <circle cx="20" cy="20" r="20" fill="url(#d)"/>
            <g fill="#FFF">
                <path d="M24 25a3 3 0 1 1 0-6 3 3 0 0 1 0 6m-8 0a3 3 0 1 1 0-6 3 3 0 0 1 0 6m12-6h-1v-2c0-.71-.378-1.333-.94-1.688l.936-1.405c.158.057.326.093.504.093a1.5 1.5 0 1 0-1.5-1.5c0 .283.083.544.219.77l-1.157 1.736c-.021 0-.041-.006-.062-.006H15c-.021 0-.041.006-.062.006l-1.157-1.736c.136-.226.219-.487.219-.77a1.5 1.5 0 1 0-1.5 1.5c.178 0 .346-.036.504-.093l.936 1.405c-.562.355-.94.978-.94 1.688v2h-1a1 1 0 0 0-1 1v4a1 1 0 0 0 1 1h1v2c0 1.1.9 2 2 2h10c1.1 0 2-.9 2-2v-2h1a1 1 0 0 0 1-1v-4a1 1 0 0 0-1-1"/>
                <path d="M24 21a1 1 0 1 0 0 2 1 1 0 0 0 0-2M16 21a1 1 0 1 0 0 2 1 1 0 0 0 0-2"/>
            </g>
        </g>
        <g transform="translate(182 5)">
            <circle cx="20" cy="20" r="20" fill="url(#d)"/>
            <g fill="#FFF">
                <path d="M27.778 27.778H12.222v-4.445h4.592c.404 1.386 1.672 2.408 3.186 2.408s2.782-1.022 3.187-2.408h4.59v4.445zM14.244 12.222h11.512l1.777 8.89h-5.31c-.614 0-1.112.497-1.112 1.11 0 .032.016.06.019.092-.003.033-.019.06-.019.094 0 .612-.499 1.11-1.111 1.11a1.113 1.113 0 0 1-1.111-1.11c0-.034-.016-.061-.019-.094.003-.032.019-.06.019-.092 0-.613-.498-1.11-1.111-1.11h-5.311l1.777-8.89zm15.734 9.782l-2.222-11.11a1.11 1.11 0 0 0-1.09-.894H13.334c-.53 0-.985.373-1.089.893l-2.222 11.111a1.028 1.028 0 0 0-.022.218v6.667c0 .613.498 1.111 1.111 1.111H28.89c.613 0 1.111-.498 1.111-1.111v-6.667c0-.073-.007-.145-.022-.218z"/>
                <path d="M17.778 15.556h4.444a1.112 1.112 0 0 0 0-2.223h-4.444a1.112 1.112 0 0 0 0 2.223M15.556 20c.613 0 1.11-.498 1.11-1.111h6.667a1.112 1.112 0 0 0 2.223 0v-.166a2.058 2.058 0 0 0-2.057-2.056H16.5a2.058 2.058 0 0 0-2.057 2.056v.166c0 .613.498 1.111 1.112 1.111"/>
            </g>
        </g>
        <g transform="translate(249 31)">
            <circle cx="20" cy="20" r="20" fill="url(#d)"/>
            <g fill="#FFF">
                <path d="M16.667 12.222a4.449 4.449 0 0 0-4.445 4.445v5.98l2.837-1.42c.153-.076.324-.116.497-.116h7.777a4.449 4.449 0 0 0 4.445-4.444 4.449 4.449 0 0 0-4.445-4.445h-6.666zM11.11 25.556A1.114 1.114 0 0 1 10 24.445v-7.778A6.673 6.673 0 0 1 16.667 10h6.666A6.673 6.673 0 0 1 30 16.667a6.673 6.673 0 0 1-6.667 6.666h-7.515l-4.21 2.106a1.116 1.116 0 0 1-.497.117z"/>
                <path d="M23.333 24.444h-6.595c.342 2.303 2.088 3.334 4.373 3.334h4.445l2.81 2.09a1.108 1.108 0 0 0 1.095-.027c.335-.2.539-.562.539-.952V21.11c-1.426 1.813-4.187 3.333-6.667 3.333"/>
            </g>
        </g>
        <path fill="url(#e)" d="M83.742 6.923H277.726c-4.545 3.84-20.724 4.576-40.212 4.613v.002H38.957v-.005C20.032 11.466 4.447 10.68 0 6.923h83.742z" transform="translate(88 202)"/>
        <path fill="url(#f)" d="M0 0h277.726v6.923H0z" transform="translate(88 202)"/>
        <path fill="#2662CF" d="M199.32 202h55.086a3.461 3.461 0 0 1-3.461 3.461H202.78a3.461 3.461 0 0 1-3.46-3.461z"/>
        <g transform="translate(187 86)">
            <circle cx="40.015" cy="39.811" r="39.806" fill="#2662CF"/>
            <path fill="#80C0FF" d="M31.276 57.254a4.25 4.25 0 0 1-3.015-1.25L15.466 43.21a4.263 4.263 0 0 1 0-6.03 4.263 4.263 0 0 1 6.03 0l12.795 12.794a4.263 4.263 0 0 1-3.015 7.28"/>
            <path fill="#D4EDFF" d="M34.291 24.384a4.263 4.263 0 0 0-6.03 0L15.466 37.18a4.263 4.263 0 0 0 0 6.03l5.799 5.8a4.246 4.246 0 0 1 .158-5.738L34.29 30.415a4.263 4.263 0 0 0 0-6.03"/>
            <g>
                <path fill="#80C0FF" d="M48.335 57.254a4.25 4.25 0 0 0 3.016-1.25L64.145 43.21a4.263 4.263 0 0 0 0-6.03 4.263 4.263 0 0 0-6.03 0L45.32 49.973a4.263 4.263 0 0 0 3.015 7.28"/>
                <path fill="#D4EDFF" d="M45.32 24.384a4.263 4.263 0 0 1 6.03 0L64.146 37.18a4.263 4.263 0 0 1 0 6.03l-5.799 5.8a4.246 4.246 0 0 0-.157-5.738L45.32 30.415a4.263 4.263 0 0 1 0-6.03"/>
            </g>
        </g>
        <g>
            <g transform="translate(354.281)">
                <path fill="#0B339B" d="M74.468 29.111c.516 0 .933.418.933.934v8.1a.933.933 0 0 1-.933.934V29.11zM1.815 29.111a.778.778 0 0 0-.777.778v8.412c0 .43.348.778.777.778V29.11zM1.815 18.036a.778.778 0 0 0-.777.778v3.665c0 .43.348.778.777.778v-5.22zM1.815 41.294a.778.778 0 0 0-.777.777v8.412c0 .43.348.778.777.778v-9.967z"/>
                <path fill="url(#g)" d="M11.66.121h52.982c5.523 0 10 4.477 10 10v130.973c0 5.522-4.477 10-10 10H11.66c-5.523 0-10-4.478-10-10V10.12c0-5.523 4.477-10 10-10z"/>
                <path fill="url(#h)" d="M11.216 1.74h53.87a8 8 0 0 1 8 8v131.808a8 8 0 0 1-8 8h-53.87a8 8 0 0 1-8-8V9.74a8 8 0 0 1 8-8z"/>
                <ellipse cx="25.463" cy="9.493" fill="#0B339B" rx="1.089" ry="1.107"/>
                <ellipse cx="38.142" cy="141.838" fill="#022057" rx="4.901" ry="4.984"/>
                <path fill="url(#i)" d="M5.738 17.307h65.36v116.165H5.737z"/>
                <rect width="13.224" height="1.107" x="31.53" y="8.86" fill="#0B339B" rx=".554"/>
            </g>
            <path fill="url(#j)" d="M107.29 110.962c-2.125 4.742-3.315 8.38-3.568 10.913-.38 3.8 1.373 3.062 5.782-1.398 4.408-4.46 6.246-7.71 4.408-10.801-1.225-2.061-3.367-3.219-6.423-3.472l-.198 4.758z" transform="translate(321)"/>
            <path fill="url(#k)" d="M112.586 108.393c-.65-.176-1.45-.014-2.392.692-2.05 1.538-3.998 4.867-5.846 9.987-.167 0-.328 0-.486-.002.58-2.207 1.594-4.928 3.044-8.162l.198-4.759c2.385.198 4.212.946 5.482 2.244z" transform="translate(321)"/>
            <path fill="url(#j)" d="M105.847 91.524c-1.804 4.59-3.205 8.707-4.202 12.349-1.497 5.462 1.206 11.693 4.486 7.417 3.28-4.277 7.82-10.307 9.04-14.133 1.22-3.826 1.02-7.612-2.784-9.68-2.536-1.377-4.716-.029-6.54 4.047z" transform="translate(321)"/>
            <path fill="url(#k)" d="M115.546 91.896c-.928-2.062-3.086-1.912-6.476.45-3.895 2.713-6.587 7.421-8.077 14.125.014-.986.147-2.015.422-3.019.997-3.641 2.398-7.758 4.202-12.349 1.824-4.075 4.004-5.424 6.54-4.046 2.146 1.166 3.145 2.88 3.389 4.84z" transform="translate(321)"/>
            <path fill="url(#l)" d="M67.99 193.542c.12-7.705.46-13.145 1.018-16.318.528-1.327 1.294-2.275 2.297-2.843 2.355-1.333 15.289-5.963 22.693-23.312H50.412c-.927-2.818-1.966-6.77-3.117-10.36-2.795-8.719-6.731-16.534-11.81-23.445-.92-3.593-.699-9.542.666-17.845 2.049-12.454 3.124-16.918-.665-26.504-3.789-9.587-8.66-9.053-9.978-1.233-1.318 7.82-4.464 16.542-8.292 30.556-3.828 14.014-2.847 19.264-2.774 32.406.05 8.762.683 23.78-3.1 45.054l-8.18 32.565h65.416c-.136-30.105-.73-9.634-.588-18.72z" transform="translate(321)"/>
            <path fill="url(#j)" d="M108.18 49.545c5.625-4.087 9.442-6.346 11.452-6.777 3.015-.646 4.646 2.717.337 10.537-2.874 5.214-6.53 10.15-10.968 14.809 4.65 3.86 7.586 7.783 8.804 11.77 1.827 5.982-13.727 15.826-16.587 16.628-2.86.801-3.955-6.484.332-12.719 2.857-4.156 5.067-7.05 6.63-8.68V49.545z" transform="translate(321)"/>
            <path fill="url(#k)" d="M119.837 42.69c-3.506 1.58-9.58 9.084-10.66 13.463-.892 3.616-.904 7.54-.035 11.772l-.141.15c3.418 2.836 5.91 5.707 7.473 8.613-2.633-2.826-8.22.403-12.778 5.33-3.26 3.525-4.877 7.413-4.85 11.665l-.055.037c-.375-2.545.324-6.425 2.759-9.966 2.857-4.157 5.067-7.05 6.63-8.68V49.504c5.625-4.087 9.442-6.346 11.452-6.776.07-.015.138-.028.205-.039z" transform="translate(321)"/>
            <path fill="url(#m)" d="M9.008 183.237L69 190.23v22.769l-68.459.636z" transform="translate(321)"/>
        </g>
        <g fill-rule="nonzero" transform="translate(369.835 53.127)">
            <ellipse cx="22.953" cy="23.076" fill="#FFF" rx="22.953" ry="23.076"/>
            <path fill="#04A" d="M14.246 38.81c.05-.881.875-1.573 1.878-1.574h13.658c1.002 0 1.829.692 1.877 1.574H14.246z"/>
            <path fill="url(#n)" d="M8.442 40.008c.001.365.024.73.068 1.092 8.422 6.736 20.463 6.736 28.885 0 .044-.363.067-.727.068-1.092v-1.723H8.443v1.723z"/>
            <path fill="#003CC1" d="M18.995 35.138h8.442v3.671h-8.442z"/>
            <rect width="5.804" height="6.818" x="35.88" y="19.405" fill="url(#o)" rx="2.902"/>
            <rect width="5.804" height="6.818" x="4.749" y="19.405" fill="url(#o)" rx="2.902"/>
            <path fill="url(#o)" d="M38.518 22.686c0 8.472-6.97 13.501-15.565 13.501-8.595 0-15.566-5.047-15.566-13.501S14.354 7.342 22.953 7.342c8.598 0 15.565 6.868 15.565 15.344z"/>
            <path fill="url(#k)" d="M37.463 22.129c0 8.163-6.378 13.01-14.247 13.01-7.868 0-14.246-4.858-14.246-13.01 0-8.153 6.378-14.787 14.246-14.787 7.87 0 14.247 6.62 14.247 14.787z"/>
            <path fill="#1D6DCC" d="M34.297 21.058c0 5.547-5.08 8.836-11.344 8.836-6.265 0-11.345-3.278-11.345-8.836s5.08-10.044 11.345-10.044c6.264 0 11.344 4.505 11.344 10.044z"/>
            <path fill="#F4FAFF" d="M34.297 20.498c0 5.24-5.08 8.347-11.344 8.347-6.265 0-11.345-3.108-11.345-8.347 0-5.24 5.08-9.484 11.345-9.484 6.264 0 11.344 4.245 11.344 9.484z"/>
            <path fill="#FFF" d="M31.582 18.705c-.527 2.686-3.525 3.774-6.833 3.151-3.308-.623-5.68-2.721-5.153-5.407.527-2.686 3.66-4.355 6.954-3.732 3.293.623 5.562 3.32 5.032 5.988z"/>
            <path fill="#24282D" d="M18.468 21.765A1.841 1.841 0 0 1 16.62 23.6a1.841 1.841 0 0 1-1.847-1.835c0-1.014.827-1.836 1.847-1.836s1.847.822 1.847 1.836z"/>
            <ellipse cx="29.812" cy="21.765" fill="#24282D" rx="1.847" ry="1.836"/>
            <path fill="#24282D" d="M23.215 27.272c-1.486 0-2.637-.761-2.637-1.714 0-.212.186-.384.416-.384.23 0 .416.172.416.384 0 .514.843.963 1.805.963.961 0 1.808-.45 1.808-.963 0-.212.186-.384.416-.384.23 0 .416.172.416.384 0 .953-1.159 1.714-2.64 1.714z"/>
            <path fill="url(#k)" d="M13.719 39.066c0 2.255.866 4.428 2.426 6.088a23.74 23.74 0 0 0 13.619 0 8.891 8.891 0 0 0 2.422-6.088v-.78H13.72v.78z"/>
            <rect width="1.583" height="5.245" x="18.468" y="39.858" fill="#2053AF" rx=".791" transform="rotate(47.42 19.26 42.48)"/>
            <rect width="1.583" height="5.245" x="22.161" y="39.858" fill="#2053AF" rx=".791" transform="rotate(47.32 22.953 42.48)"/>
            <rect width="1.583" height="5.245" x="25.855" y="39.858" fill="#2053AF" rx=".791" transform="rotate(47.32 26.646 42.48)"/>
        </g>
        <g fill-rule="nonzero" transform="translate(303 2)">
            <path fill="url(#k)" d="M18.333.395H49.39c10.088 0 18.267 8.286 18.267 18.508 0 6.538-2.107 11.876-7.165 15.172a7.336 7.336 0 0 0 1.093 6.938s-5.36-1.12-6.585-4.496a17.96 17.96 0 0 1-5.637.907H18.307C8.208 37.394.029 29.108 0 18.876.058 8.657 8.247.402 18.333.396z"/>
            <rect width="31.956" height="4.076" x="17.214" y="16.548" fill="#FFF" rx="1.78"/>
            <path fill="url(#m)" d="M163.433 7h-36.498c-11.857 0-21.47 9.739-21.47 21.752 0 7.694 2.487 13.956 8.43 17.837a8.608 8.608 0 0 1-1.288 8.163s6.305-1.317 7.718-5.278a21.213 21.213 0 0 0 6.61 1.03l36.521.058c11.854-.032 21.464-9.743 21.526-21.753-.031-12.04-9.664-21.79-21.549-21.809z"/>
            <rect width="31.956" height="4.076" x="120.385" y="26.615" fill="#FFF" rx="1.78"/>
            <rect width="13.876" height="4.076" x="154.814" y="26.615" fill="#FFF" rx="1.78" transform="rotate(180 161.752 28.652)"/>
        </g>
        <g fill-rule="nonzero">
            <path fill="#2053AF" d="M52.997 234.993c.218 2.047-9.83 4.55-22.279 5.46-12.45 1.136-22.496.454-22.715-1.593-.218-2.047 9.83-4.549 22.279-5.459 12.45-.91 22.715-.227 22.715 1.592"/>
            <path fill="url(#p)" d="M18.714 64.762c6.88-3.012 21.071-15.06 12.686-18.288-8.385-3.228-1.29-10.113 4.085-13.125 5.375-3.227 6.235-9.897-.43-10.973-6.665-.86-3.225-5.379.43-11.618 2.58-4.518-2.58-12.48-8.17-9.467-8.816 4.733-6.45 21.946-11.18 17.643-3.01-2.582-9.03-2.582-7.956 3.657 1.29 6.24 2.795 17.213-1.075 15.922-4.085-1.291-7.095-.215-6.88 6.67.215 7.1 0 13.555 5.59 17.858 5.59 4.303 10.105 2.797 12.9 1.721z" transform="translate(27 150)"/>
            <path fill="#FFF" d="M37.974 217.56c1.075-13.34 6.88-32.705 17.416-57.448.215-.86.645-1.29.86-1.72h-.215c-.215.43-.43 1.075-.86 1.72-1.935 4.519-5.805 13.77-9.46 24.528-4.516 13.34-7.31 24.528-7.956 33.134l.215-.215z"/>
            <path fill="#FFF" d="M52.753 166.128l4.945-2.106.392.92-4.945 2.106zM46.903 181.534l12.008-4.09.323.947-12.008 4.09zM39.985 174.096l.95-.311 4.546 13.907-.95.31zM39.08 209.194l8.152-4.36.472.882-8.153 4.36zM33.941 195.164l.648-.762 6.886 5.852-.648.762z"/>
            <g>
                <path fill="url(#q)" d="M36.039 48.03c2.374-6.03 3.453-22.4-3.669-19.168-7.121 3.23-7.121-5.385-5.826-10.554 1.295-5.17-2.374-9.908-7.122-6.462-4.747 3.446-5.395-1.292-7.121-7.323C11.22 0 2.805-1.507 1.295 3.662c-2.374 8.4 9.71 17.446 4.1 17.876-3.453.216-7.121 4.093-2.59 7.324 4.748 3.015 12.517 8.83 9.28 10.553-3.237 1.723-4.532 4.308 0 8.4 4.532 4.093 8.632 8.4 14.675 7.539 6.042-.862 8.416-4.739 9.279-7.323z" transform="translate(4 161)"/>
                <path fill="#FFF" d="M37.234 215.708c-7.554-8.831-16.186-24.339-25.25-46.308-.215-.646-.43-1.292-.647-1.508h-.216c.216.431.432.862.648 1.508 1.726 3.877 4.963 12.062 9.495 21.108 5.611 11.2 10.79 19.815 15.97 25.2z"/>
                <path fill="#FFF" d="M13.972 174.841l1.739-4.418.93.366-1.738 4.418zM20.029 187.94l4.78-9.913.901.434-4.78 9.914zM11.07 187.786l.445-.896 11.57 5.757-.445.896zM32.48 209.999l2.318-7.866.959.283-2.317 7.865zM20.405 204.23l7.954-.706.089.996-7.954.706z"/>
            </g>
            <path fill="url(#r)" d="M38.787 88H24.474c-1.709 0-3.204-1.31-3.631-3.055l-2.777-16.8C17.638 65.964 19.347 64 21.697 64H41.35c2.137 0 3.846 1.964 3.632 4.145l-2.777 16.8C41.99 86.691 40.495 88 38.787 88z" transform="translate(4 150)"/>
            <path fill="url(#s)" d="M19.758 64.532c-3.417-3.253-5.552-6.506-1.708-6.506 4.058 0-1.068-5.855 3.417-5.204 4.698.867 4.485 4.987 6.407 2.168 1.922-2.819 1.281-4.77 4.485-3.686 2.35.65 1.708 6.722 3.417 5.855 1.709-.867 3.844-5.204 7.048-2.82 3.203 2.386-.855 8.241-3.631 9.759-2.35 1.735-19.435.434-19.435.434z" transform="translate(4 150)"/>
            <path fill="#80F0FF" d="M48.387 214.118c1.742-.859 5.009-3.005 4.573-5.152-.217-2.146-1.306-2.576-2.395-1.288-1.307 1.288-2.614 1.503-3.703-.214-1.089-1.718-1.742-1.932-3.267-.644-1.524 1.288-.653-3.22-2.83-2.791-2.179.215-3.921 4.293-5.446 3.005-1.524-1.288-2.177-3.864-4.355-2.361-1.96 1.503-1.09 4.508-3.485 3.435-2.396-1.074-3.267-1.932-3.702.429-.218 2.361-3.05 2.147-1.09 4.937 2.178 3.005 25.7.644 25.7.644z"/>
            <path fill="url(#t)" d="M44.794 67H19.206C17.882 67 17 66 17 65c0-1.2 1.103-2 2.206-2h25.588C46.118 63 47 64 47 65s-.882 2-2.206 2z" transform="translate(4 150)"/>
        </g>
        <g fill-rule="nonzero">
            <path fill="#2053AF" d="M422.003 242.993c-.218 2.047 9.83 4.55 22.279 5.46 12.45 1.136 22.496.454 22.715-1.593.218-2.047-9.83-4.549-22.279-5.459-12.45-.91-22.715-.227-22.715 1.592"/>
            <path fill="url(#p)" d="M18.714 64.762c6.88-3.012 21.071-15.06 12.686-18.288-8.385-3.228-1.29-10.113 4.085-13.125 5.375-3.227 6.235-9.897-.43-10.973-6.665-.86-3.225-5.379.43-11.618 2.58-4.518-2.58-12.48-8.17-9.467-8.816 4.733-6.45 21.946-11.18 17.643-3.01-2.582-9.03-2.582-7.956 3.657 1.29 6.24 2.795 17.213-1.075 15.922-4.085-1.291-7.095-.215-6.88 6.67.215 7.1 0 13.555 5.59 17.858 5.59 4.303 10.105 2.797 12.9 1.721z" transform="matrix(-1 0 0 1 448 158)"/>
            <path fill="#FFF" d="M437.026 225.56c-1.075-13.34-6.88-32.705-17.416-57.448-.215-.86-.645-1.29-.86-1.72h.215c.215.43.43 1.075.86 1.72 1.935 4.519 5.805 13.77 9.46 24.528 4.516 13.34 7.31 24.528 7.956 33.134l-.215-.215z"/>
            <path fill="#FFF" d="M422.247 174.128l-4.945-2.106-.392.92 4.945 2.106zM428.097 189.534l-12.008-4.09-.323.947 12.008 4.09zM435.015 182.096l-.95-.311-4.546 13.907.95.31zM435.92 217.194l-8.152-4.36-.472.882 8.153 4.36zM441.059 203.164l-.648-.762-6.886 5.852.648.762z"/>
            <g>
                <path fill="url(#q)" d="M36.039 48.03c2.374-6.03 3.453-22.4-3.669-19.168-7.121 3.23-7.121-5.385-5.826-10.554 1.295-5.17-2.374-9.908-7.122-6.462-4.747 3.446-5.395-1.292-7.121-7.323C11.22 0 2.805-1.507 1.295 3.662c-2.374 8.4 9.71 17.446 4.1 17.876-3.453.216-7.121 4.093-2.59 7.324 4.748 3.015 12.517 8.83 9.28 10.553-3.237 1.723-4.532 4.308 0 8.4 4.532 4.093 8.632 8.4 14.675 7.539 6.042-.862 8.416-4.739 9.279-7.323z" transform="matrix(-1 0 0 1 471 169)"/>
                <path fill="#FFF" d="M437.766 223.708c7.554-8.831 16.186-24.339 25.25-46.308.215-.646.43-1.292.647-1.508h.216c-.216.431-.432.862-.648 1.508-1.726 3.877-4.963 12.062-9.495 21.108-5.611 11.2-10.79 19.815-15.97 25.2z"/>
                <path fill="#FFF" d="M461.028 182.841l-1.739-4.418-.93.366 1.738 4.418zM454.971 195.94l-4.78-9.913-.901.434 4.78 9.914zM463.93 195.786l-.445-.896-11.57 5.757.445.896zM442.52 217.999l-2.318-7.866-.959.283 2.317 7.865zM454.595 212.23l-7.954-.706-.089.996 7.954.706z"/>
            </g>
            <path fill="url(#r)" d="M38.787 88H24.474c-1.709 0-3.204-1.31-3.631-3.055l-2.777-16.8C17.638 65.964 19.347 64 21.697 64H41.35c2.137 0 3.846 1.964 3.632 4.145l-2.777 16.8C41.99 86.691 40.495 88 38.787 88z" transform="matrix(-1 0 0 1 471 158)"/>
            <path fill="url(#s)" d="M19.758 64.532c-3.417-3.253-5.552-6.506-1.708-6.506 4.058 0-1.068-5.855 3.417-5.204 4.698.867 4.485 4.987 6.407 2.168 1.922-2.819 1.281-4.77 4.485-3.686 2.35.65 1.708 6.722 3.417 5.855 1.709-.867 3.844-5.204 7.048-2.82 3.203 2.386-.855 8.241-3.631 9.759-2.35 1.735-19.435.434-19.435.434z" transform="matrix(-1 0 0 1 471 158)"/>
            <path fill="#80F0FF" d="M426.613 222.118c-1.742-.859-5.009-3.005-4.573-5.152.217-2.146 1.306-2.576 2.395-1.288 1.307 1.288 2.614 1.503 3.703-.214 1.089-1.718 1.742-1.932 3.267-.644 1.524 1.288.653-3.22 2.83-2.791 2.179.215 3.921 4.293 5.446 3.005 1.524-1.288 2.177-3.864 4.355-2.361 1.96 1.503 1.09 4.508 3.485 3.435 2.396-1.074 3.267-1.932 3.702.429.218 2.361 3.05 2.147 1.09 4.937-2.178 3.005-25.7.644-25.7.644z"/>
            <path fill="url(#t)" d="M44.794 67H19.206C17.882 67 17 66 17 65c0-1.2 1.103-2 2.206-2h25.588C46.118 63 47 64 47 65s-.882 2-2.206 2z" transform="matrix(-1 0 0 1 471 158)"/>
        </g>
        <g>
            <path fill="url(#u)" fill-rule="nonzero" d="M85.92 36.08c-1.4-1.928.56-4.957-.56-8.813-3.358-11.293.56-16.25.56-16.25 0-4.131 3.357-7.712 8.673-9.64C97.112.551 99.91 0 102.988 0c4.477 0 8.674 1.102 12.031 3.03 3.358 1.928 5.876 4.682 5.596 7.987-.28 2.203-2.518 5.233-.28 8.813 6.156 9.365 3.358 14.598.28 16.25-3.077 1.653-6.435 1.653-8.114 2.754-9.234 4.958-21.825 4.132-26.582-2.754z" transform="translate(66 104)"/>
            <path fill="url(#v)" fill-rule="nonzero" d="M58.73 78.664c-1.96-.28-4.199-.56-6.438-1.12-1.68-.279-2.519-1.958-2.239-3.637.28-1.679 1.96-2.519 3.639-2.239 10.356 2.239 18.753 1.4 24.911-3.078C88.12 61.874 90.08 49.561 90.08 49.561c.28-1.679 1.68-2.798 3.359-2.518 1.68.28 2.799 1.679 2.52 3.358 0 .56-2.24 15.111-13.996 23.226-6.438 4.478-14.275 6.157-23.232 5.037z" transform="translate(66 104)"/>
            <path fill="url(#w)" fill-rule="nonzero" d="M92.138 45h-.537c-2.416 0-4.295 1.71-4.564 4.276 0 0-.268 1.71-.805 3.99-.537.57-.806 1.141-1.074 1.711-.805 2.566 1.61 5.701 4.027 5.986 1.611.285 3.222-1.14 4.296-2.565 0 .285.268.285.268.57.269-.57.537-1.14.537-1.71.269-.856.806-1.426.806-2.28v-.286c.537-2.28.805-3.99.805-3.99.537-2.851-1.074-5.132-3.759-5.702z" transform="translate(66 104)"/>
            <path fill="url(#x)" fill-rule="nonzero" d="M93.798 50.564c-1.393-.829-2.785-3.039-.836-5.249 1.671-2.21 4.456-3.315 7.52-3.315h.835c2.506 0 5.012 1.105 6.683 2.763-1.67 4.144-10.304 7.459-14.202 5.801z" transform="translate(66 104)"/>
            <path fill="url(#y)" fill-rule="nonzero" d="M99 36.375V46h4.722l.278-7.975V35c-1.667.825-3.333 1.375-5 1.375z" transform="translate(66 104)"/>
            <path fill="url(#z)" fill-rule="nonzero" d="M99.275 39c4.666 0 8.51-2.211 10.98-5.805 1.647-2.488 2.745-5.252 2.745-8.569v-5.528c0-4.147-1.647-7.74-4.392-10.228C106.138 6.382 102.568 5 99 5c-2.47 0-4.667.553-6.863 1.935C88.02 9.423 85 14.122 85 19.374v5.528c0 4.976 2.745 9.399 6.863 11.887C94.059 38.17 96.529 39 99.275 39z" transform="translate(66 104)"/>
            <path fill="#007CFF" fill-rule="nonzero" d="M151.203 189.423c-1.66 7.273 7.197 14.546 14.394 16.225 7.197 1.678 14.394-2.798 16.054-10.07 1.661-7.274-2.768-14.547-9.965-16.226-7.473-1.678-19.099 2.798-20.483 10.07z"/>
            <path fill="#006FE6" fill-rule="nonzero" d="M165 136c-.27 1.636-1.885 3-3.5 3-1.885 0-3.23-1.364-3.5-3h7z"/>
            <path fill="url(#A)" fill-rule="nonzero" d="M107.271 45.038c1.122 1.402 1.963 3.084 1.963 5.046 0 0-4.486 21.306 4.766 32.24 0 0-16.822 10.091-30 3.363 0-9.531 5.888-16.26 5.047-31.678-.28-3.364 1.121-6.168 3.084-8.41.28 4.766 10.374-1.122 15.14-.56z" transform="translate(66 104)"/>
            <g fill-rule="nonzero">
                <path fill="#19428C" d="M155.996 249.027c-2.2-.28-3.85 1.68-4.125 2.24-1.65 3.36-1.925 7-4.95 12.32-2.2 3.64-3.85 4.2-5.5 7.28-1.375 2.52.825 3.92 3.575 3.36 1.1-.28 7.425-.84 8.25-5.6.825-3.64 6.325-4.76 6.6-6.16 0-.84-.55-3.36 0-6.44.275-3.92-1.925-6.72-3.85-7z"/>
                <path fill="url(#B)" d="M10.05 15.923c1.65-2.52 4.95-11.2 4.4-13.44-.55-2.52-5.225-3.36-5.775-1.4-1.1 3.36-.825 9.8-4.675 15.96 0 1.96 4.125 1.96 6.05-1.12z" transform="translate(141 249)"/>
            </g>
            <g fill-rule="nonzero">
                <path fill="#19428C" d="M81 213.733c1.628-1.69 1.085-4.227.814-4.79-1.629-3.382-4.343-5.637-6.514-11.555-1.629-3.946-1.086-5.636-2.443-8.736-1.086-2.819-3.529-1.691-4.886.845-.543.845-3.8 6.482-.543 10.145 2.443 2.819 0 8.173.815 9.019.542.563 2.714 1.69 5.157 3.945 2.714 2.536 6.243 2.536 7.6 1.127z"/>
                <path fill="url(#C)" d="M5.27 13.139c1.086 3.1 5.972 10.709 7.872 11.554 2.171 1.127 5.7-2.254 4.614-3.945-1.9-3.1-7.328-6.482-9.771-13.528-1.357-1.127-3.8 2.255-2.714 5.919z" transform="translate(66 187)"/>
            </g>
            <path fill="#007CFF" fill-rule="nonzero" d="M137.358 208.152l32.246-14.616c3.084-1.38 6.73 0 7.851 3.033 1.402 3.034 0 6.619-3.084 7.722l-27.48 12.134 9.814 32.817-8.412 2.758-14.02-36.954c-.841-2.482.28-5.515 3.085-6.894z"/>
            <path fill="url(#D)" fill-rule="nonzero" d="M99.663 86c-1.642 0-3.01 0-4.926-.28C93.095 85.44 92 84.038 92 82.356c.274-1.682 1.642-2.804 3.284-2.804 5.473.561 12.315.28 14.778-3.644 3.831-6.448-3.558-20.745-6.295-25.23-.82-1.402-.547-3.364.821-4.205 1.369-.84 3.284-.56 4.105.841 1.369 2.243 12.862 20.745 6.295 31.678C112.525 83.757 107.325 86 99.663 86z" transform="translate(66 104)"/>
            <path fill="url(#E)" fill-rule="nonzero" d="M116 20.612s-10.198 3.622-16.43-.836c-6.233-4.458-9.35-11.145-6.516-15.046 2.833-3.9 10.198-3.622 16.43.836C115.717 10.024 116 20.612 116 20.612z" transform="translate(66 104)"/>
            <path fill="#007CFF" fill-rule="nonzero" d="M169.163 192s-5.58.271-13.95.543c-4.185.271-8.928.543-14.229.543-5.3.271-10.602.543-16.181.814h-3.349l-1.115.271-1.953.272h-1.395l-1.116.271c-2.79.543-5.301 1.357-7.812 1.9-2.511.543-5.022 1.086-7.254 1.9-2.232.543-4.464 1.086-6.417 1.629-3.906 1.086-7.254 1.9-9.765 2.443-2.232.543-3.627 1.085-3.627 1.085L82.674 211s1.395-.271 3.906-.543c2.51-.271 5.859-.814 10.044-1.628 1.953-.272 4.185-.815 6.696-1.086 2.232-.272 4.743-.814 7.254-1.357 2.51-.543 5.3-1.086 7.812-1.629l1.116-.271H120.339s-.837.271-.28 0l1.954-.272h3.626c5.58-.271 11.16-.543 16.182-.543 5.301-.271 10.044-.542 14.23-.814a957.64 957.64 0 0 1 13.949-.814L169.163 192z"/>
            <path fill="#121F55" fill-rule="nonzero" d="M167.543 196.2c0-1.12-.836-1.68-1.672-1.68h-65.185c-1.393 0-2.507.84-2.507 1.68 0 1.12 1.114 1.68 2.507 1.68h65.185c.836.28 1.672-.56 1.672-1.68z"/>
            <path fill="url(#F)" fill-rule="nonzero" d="M74.05 39.2c0 1.12-.836 1.68-1.95 1.68H47.307c-1.114 0-1.95-.84-1.95-1.68 0-1.12.836-1.68 1.95-1.68H72.1c1.114 0 1.95.84 1.95 1.68z" transform="translate(96 157)"/>
            <path fill="url(#G)" fill-rule="nonzero" d="M2.179 3.64v33.04c0 1.4 1.114 2.8 2.785 2.8h43.179c1.393 0 2.786-1.12 2.786-2.8V3.64c0-1.4-1.115-2.8-2.786-2.8H4.686c-1.393 0-2.507 1.4-2.507 2.8z" transform="translate(96 157)"/>
            <path fill="url(#H)" fill-rule="nonzero" d="M0 3.8v33.04c0 1.4 1.114 2.8 2.786 2.8h43.457c1.393 0 2.786-1.12 2.786-2.8V3.8c0-1.4-1.115-2.8-2.786-2.8H2.786C1.114 1 0 2.4 0 3.8z" transform="translate(96 157)"/>
            <path fill="url(#I)" d="M2.067 12.222A2.08 2.08 0 0 1 0 10.142V2.14C0 .996.93.06 2.067.06a2.08 2.08 0 0 1 2.067 2.08v8.001a2.08 2.08 0 0 1-2.067 2.08" transform="translate(117 171)"/>
            <path fill="url(#J)" d="M7.608 9.685l-.576-.58a1.9 1.9 0 0 1 0-2.673l.304-.307a1.378 1.378 0 0 0 0-1.94 2.126 2.126 0 0 0-3.021 0l-.204.205v5.75c0 .287-.058.56-.163.81l.638.642c.835.84 2.187.84 3.022 0a1.355 1.355 0 0 0 0-1.907" transform="translate(117 171)"/>
            <path fill="url(#K)" d="M4.125 10.104V4.3L2.347 6.16a2.239 2.239 0 0 0-.005 3.063l-.66.69h1.32l1.586 1.656-.622-.648c.103-.252.16-.527.16-.816" transform="translate(117 171)"/>
            <path fill="url(#L)" fill-rule="nonzero" d="M112.353 52.574c-3.567 0-5.763 1.937-6.586 4.426a83.69 83.69 0 0 0-3.019-5.532c-1.372-2.213-.823-4.979 1.372-6.638.824-.553 1.647-.83 2.47-.83 1.647 0 3.019.83 3.842 2.213.55 1.106 2.196 3.319 3.568 6.361-.549.277-1.098 0-1.647 0z" transform="translate(66 104)"/>
            <path fill="url(#M)" fill-rule="nonzero" d="M82.648 80.352c-.812 1.702-.812 3.405-.27 5.108L92.12 90c1.354-.851 2.707-1.986 3.248-3.69 1.624-3.688 0-7.945-3.518-9.647-3.519-1.703-7.578 0-9.202 3.689z" transform="translate(66 104)"/>
        </g>
    </g>
</svg>
